<?xml version="1.0" encoding="UTF-8" standalone="no"?>
<svg
   xmlns:dc="http://purl.org/dc/elements/1.1/"
   xmlns:cc="http://creativecommons.org/ns#"
   xmlns:rdf="http://www.w3.org/1999/02/22-rdf-syntax-ns#"
   xmlns:svg="http://www.w3.org/2000/svg"
   xmlns="http://www.w3.org/2000/svg"
   xmlns:xlink="http://www.w3.org/1999/xlink"
   id="svg52"
   version="1.1"
   viewBox="0 0 80 80"
   height="80mm"
   width="80mm">
   <style type="text/css">
      .gufa {
         animation-name: gufan;
         animation-duration: 5s;
         animation-iteration-count: infinite;
         animation-direction: alternate;
      }

      @keyframes gufan{
         0%  {fill: #FFAD1F; fill-opacity:0.8;}
         50%  {fill:#FFE651; fill-opacity:0.3;}
         100% {fill: #FFAD1F; fill-opacity:0.7;}
      }
      .gufar {
         animation-name: guff;
         animation-duration: 3s;
         animation-iteration-count: infinite;
         animation-direction: alternate;
         top: 0;
      }
      @keyframes guff{
         0%  {fill: #FFE651; fill-opacity:0.2;}
         50%  {fill:#FFAD1F; fill-opacity:0.7;}
         100% {fill: #FFE651; fill-opacity:0.3;}
      }
   </style>
  <defs
     id="defs46">
    <linearGradient
       id="linearGradient4599">
      <stop
         id="stop4595"
         offset="0"
         style="stop-color:#ff6600;stop-opacity:1;" />
      <stop
         id="stop4597"
         offset="1"
         style="stop-color:#803300;stop-opacity:1" />
    </linearGradient>
    <radialGradient
       gradientUnits="userSpaceOnUse"
       gradientTransform="matrix(0.99836787,0,0,0.401798,-0.11643902,160.3795)"
       r="38.537258"
       fy="277.44024"
       fx="39.757123"
       cy="277.44024"
       cx="39.757123"
       id="radialGradient4601"
       xlink:href="#linearGradient4599" />
  </defs>
  <metadata
     id="metadata49">
    <rdf:RDF>
      <cc:Work
         rdf:about="">
        <dc:format>image/svg+xml</dc:format>
        <dc:type
           rdf:resource="http://purl.org/dc/dcmitype/StillImage" />
        <dc:title></dc:title>
      </cc:Work>
    </rdf:RDF>
  </metadata>
  <g
     id="layer2">
    <path
       d="M 78.164646,55.036575 A 38.331432,16.063448 0 0 1 39.918345,71.099984 38.331432,16.063448 0 0 1 1.5021596,55.107927 38.331432,16.063448 0 0 1 39.577822,38.973484 38.331432,16.063448 0 0 1 78.163134,54.893874"
       id="path8620"
       style="fill:#aa8800;fill-opacity:1;stroke:none;stroke-width:0.30041295" />
  </g>
  <g
     transform="translate(0,-217)"
     id="layer1">
    <path
       style="fill:url(#radialGradient4601);fill-opacity:1;stroke-width:0.68833542"
       class="st1"
       d="m 66.026916,260.58488 c 1.939233,5.68059 -0.775692,10.75037 -0.775692,10.75037 -0.232709,-7.57412 -5.042002,-11.60551 -7.136374,-13.07147 -4.731725,-1.03839 -10.006436,-1.71028 -15.668992,-1.89353 4.188741,6.65789 0.542985,13.43795 0.542985,13.43795 -0.310279,-8.24602 -5.895266,-12.33849 -7.601789,-13.43795 -5.352281,0.24432 -10.394283,0.91621 -14.8933,1.9546 3.723324,6.47466 0.310275,13.0104 0.310275,13.0104 -0.232706,-5.80277 -3.0252,-9.52874 -5.274709,-11.60551 -8.7653288,2.87082 -14.4278858,7.20763 -14.4278858,12.09416 0,8.55142 17.2203788,15.51473 38.4743598,15.51473 21.253981,0 38.47436,-6.96331 38.47436,-15.51473 -0.07757,-4.39789 -4.654156,-8.42927 -12.023238,-11.23902 z"
       id="path4548" />
    <path
       id="path4550"
       d="m 54.85694,225.40186 c 3.180341,2.74867 1.628955,6.23032 -0.310277,9.28441 -1.163539,1.83244 -2.947632,3.78706 -3.18034,6.04708 -0.310277,3.35949 4.576587,4.94761 6.748527,5.74167 1.0084,0.36649 -0.698124,2.80975 -1.628955,2.50434 -4.421448,-1.52704 -8.765328,-3.84814 -6.748527,-9.22332 1.396247,-3.72598 9.075605,-10.13955 4.731726,-13.80445 -0.698123,-0.61081 -0.387846,-1.22163 0.387846,-0.54973 z"
       class="st1 gufa"
       style="fill:#aa8800;stroke-width:0.68833542">
      <title
         id="title8709">gufa3</title>
    </path>
    <path
       id="path4552"
       d="m 26.156309,222.9586 c 3.18034,2.74867 1.628955,6.23032 -0.310277,9.2844 -1.163539,1.83245 -2.947632,3.78706 -3.18034,6.04708 -0.310277,3.35949 4.576587,4.94761 6.748527,5.74167 1.0084,0.36649 -0.698124,2.80976 -1.628955,2.50435 -4.421449,-1.52704 -8.765328,-3.84814 -6.748527,-9.22332 1.396247,-3.72598 9.075605,-10.13955 4.731726,-13.80445 -0.620555,-0.6719 -0.387847,-1.22163 0.387846,-0.54973 z"
       class="st1 gufa"
       style="fill:#aa8800;stroke-width:0.68833542">
      <title
         id="title8705">gufa1</title>
    </path>
    <path
       id="path4554"
       d="m 39.575793,219.41586 c 3.568187,3.78706 1.784094,8.67359 -0.310277,12.88822 -1.318677,2.62651 -3.257909,5.25302 -3.490617,8.49035 -0.387846,4.70328 5.042003,6.90222 7.52422,8.00169 1.163539,0.48865 -0.775693,3.97031 -1.784094,3.54273 -4.886864,-2.13785 -9.696159,-5.37518 -7.44665,-12.88822 1.551385,-5.19194 10.006436,-14.10985 5.274711,-19.24071 -0.930832,-0.91622 -0.620555,-1.71028 0.232707,-0.79406 z"
       class="st1 gufar"
       style="fill:#aa8800;stroke-width:0.68833542">
      <title
         id="title8707">gufa2</title>
    </path>
    <path
       id="path4605"
       d="m 4.7495094,279.24298 18.7686596,7.10372 14.519319,1.97107 16.066642,-1.64817 15.64055,-5.48925 8.007855,-5.3961 -1.056501,-4.61371 v 0 l -7.330837,3.91095 -7.575957,3.16888 -10.037842,1.85171 -15.373224,1.40117 -14.752319,-0.76538 -11.6313675,-5.38642 -8.02552,-4.8267 -0.2155272,4.6924 z"
       style="fill:#2b1100;fill-opacity:1;stroke:none;stroke-width:0.25460398px;stroke-linecap:butt;stroke-linejoin:miter;stroke-opacity:1" />
    <path
       d="m 25.80954,267.83099 a 10.517141,1.3293886 0 0 1 -2.2e-5,0.003 l -10.51712,-0.003 z"
       id="path4609"
       style="fill:#aa8800;fill-opacity:1;stroke:none;stroke-width:0.25141358" />
    <path
       d="m -11.367337,262.51346 a 3.3018937,8.8625908 0 0 1 -6e-6,0.0179 l -3.301887,-0.0179 z"
       id="path4611"
       style="fill:#aa8800;fill-opacity:1;stroke:none;stroke-width:0.25141358" />
    <path
       d="m 21.561079,256.46561 a 9.2489586,4.1441388 0 0 1 -1.9e-5,0.008 l -9.24894,-0.008 z"
       id="path4662"
       style="fill:#aa8800;fill-opacity:1;stroke:none;stroke-width:0.25141358" />
    <path
       d="m -14.669221,266.49942 a 4.3085542,6.0021214 0 0 1 -9e-6,0.0121 l -4.308546,-0.0121 z"
       id="path4664"
       style="fill:#aa8800;fill-opacity:1;stroke:none;stroke-width:0.26524052" />
    <path
       d="m -15.407828,276.2988 a 5.2933669,3.5522764 0 0 1 -1.1e-5,0.007 l -5.293356,-0.007 z"
       id="path4666"
       style="fill:#aa8800;fill-opacity:1;stroke:none;stroke-width:0.26524052" />
    <path
       d="m 9.9115342,236.14723 a 1.9566778,5.5391192 0 0 1 -4e-6,0.0112 l -1.9566738,-0.0112 z"
       id="path8610"
       style="fill:#aa8800;fill-opacity:1;stroke:none;stroke-width:0.25141358" />
    <path
       d="m 1.9689679,263.86035 a 4.7114744,6.6644349 0 0 1 -9.6e-6,0.0135 l -4.7114648,-0.0135 z"
       id="path8616"
       style="fill:#aa8800;fill-opacity:1;stroke:none;stroke-width:0.25141358" />
  </g>
</svg>
